<svg width="24" height="24" viewBox="0 0 24 24" fill="none" xmlns="http://www.w3.org/2000/svg">
<path d="M0 10C0 4.47715 4.47715 0 10 0H14C19.5228 0 24 4.47715 24 10V14C24 19.5228 19.5228 24 14 24H10C4.47715 24 0 19.5228 0 14V10Z" fill="white"/>
<path fill-rule="evenodd" clip-rule="evenodd" d="M13.5 8C13.5 8.82843 12.8284 9.5 12 9.5C11.1716 9.5 10.5 8.82843 10.5 8C10.5 7.17157 11.1716 6.5 12 6.5C12.8284 6.5 13.5 7.17157 13.5 8ZM15 8C15 9.65685 13.6569 11 12 11C10.3431 11 9 9.65685 9 8C9 6.34315 10.3431 5 12 5C13.6569 5 15 6.34315 15 8ZM15.9398 14.5607C16.1831 14.804 16.3512 15.1689 16.4365 15.7818C16.4688 16.0143 16.4861 16.2513 16.4951 16.5H7.50505C7.51404 16.2514 7.53143 16.0145 7.56379 15.7822C7.64917 15.1692 7.81741 14.8041 8.06086 14.5607C8.34921 14.2723 8.90136 13.9861 9.69925 13.7807C10.4674 13.5829 11.3079 13.5 12 13.5C12.692 13.5 13.5328 13.5829 14.3011 13.7807C15.0993 13.9861 15.6515 14.2724 15.9398 14.5607ZM17.0004 13.5C17.7791 14.2787 17.9588 15.3727 17.9955 16.5C17.9973 16.5555 17.9988 16.611 18 16.6666C18.0063 16.9657 18.0042 17.2662 18.0021 17.5628V17.5629C18.001 17.7097 18 17.8557 18 18L5.99998 18C5.99998 17.8563 5.99896 17.711 5.99793 17.5648C5.99586 17.2696 5.99376 16.9704 5.99998 16.6726C6.00118 16.615 6.0027 16.5575 6.00458 16.5C6.04156 15.3727 6.2215 14.2787 7.0002 13.5C8.12542 12.3748 10.4087 12 12 12C13.5913 12 15.8752 12.3748 17.0004 13.5Z" fill="#3E555D"/>
</svg>
