<svg width="16" height="17" viewBox="0 0 16 17" fill="none" xmlns="http://www.w3.org/2000/svg">
<path d="M8.9375 15.375C8.9375 15.6236 9.03627 15.8621 9.21209 16.0379C9.3879 16.2137 9.62636 16.3125 9.875 16.3125H14.25C14.6644 16.3125 15.0618 16.1479 15.3549 15.8549C15.6479 15.5618 15.8125 15.1644 15.8125 14.75V2.25C15.8125 1.8356 15.6479 1.43817 15.3549 1.14515C15.0618 0.85212 14.6644 0.6875 14.25 0.6875H9.875C9.62636 0.6875 9.3879 0.786272 9.21209 0.962087C9.03627 1.1379 8.9375 1.37636 8.9375 1.625C8.9375 1.87364 9.03627 2.1121 9.21209 2.28791C9.3879 2.46373 9.62636 2.5625 9.875 2.5625H13.9375V14.4375H9.875C9.62636 14.4375 9.3879 14.5363 9.21209 14.7121C9.03627 14.8879 8.9375 15.1264 8.9375 15.375ZM0.46172 7.83672L3.58672 4.71172C3.76284 4.5356 4.00171 4.43665 4.25078 4.43665C4.49985 4.43665 4.73872 4.5356 4.91484 4.71172C5.09096 4.88784 5.18991 5.12671 5.18991 5.37578C5.18991 5.62485 5.09096 5.86372 4.91484 6.03984L3.39063 7.5625H9.875C10.1236 7.5625 10.3621 7.66127 10.5379 7.83709C10.7137 8.0129 10.8125 8.25136 10.8125 8.5C10.8125 8.74864 10.7137 8.9871 10.5379 9.16291C10.3621 9.33873 10.1236 9.4375 9.875 9.4375H3.39063L4.91563 10.9617C5.09175 11.1378 5.19069 11.3767 5.19069 11.6258C5.19069 11.8749 5.09175 12.1137 4.91563 12.2898C4.73951 12.466 4.50064 12.5649 4.25156 12.5649C4.00249 12.5649 3.76362 12.466 3.5875 12.2898L0.462502 9.16484C0.375051 9.0778 0.305643 8.97435 0.258258 8.86042C0.210874 8.74649 0.186444 8.62433 0.186372 8.50094C0.186298 8.37755 0.210585 8.25537 0.257835 8.14138C0.305085 8.0274 0.374372 7.92387 0.46172 7.83672Z" fill="#FE6A35"/>
</svg>
