<svg width="18" height="17" viewBox="0 0 18 17" fill="none" xmlns="http://www.w3.org/2000/svg">
<path d="M8.99998 4.43748C8.19649 4.43748 7.41105 4.67574 6.74298 5.12213C6.0749 5.56853 5.5542 6.203 5.24672 6.94533C4.93924 7.68765 4.85879 8.50449 5.01554 9.29253C5.17229 10.0806 5.55921 10.8044 6.12736 11.3726C6.69551 11.9408 7.41938 12.3277 8.20743 12.4844C8.99547 12.6412 9.81231 12.5607 10.5546 12.2532C11.297 11.9458 11.9314 11.4251 12.3778 10.757C12.8242 10.0889 13.0625 9.30346 13.0625 8.49998C13.0612 7.42292 12.6328 6.39033 11.8712 5.62873C11.1096 4.86713 10.077 4.43872 8.99998 4.43748ZM8.99998 10.6875C8.56733 10.6875 8.1444 10.5592 7.78467 10.3188C7.42494 10.0785 7.14456 9.73681 6.97899 9.3371C6.81343 8.93739 6.77011 8.49755 6.85451 8.07322C6.93892 7.64889 7.14726 7.25911 7.45319 6.95318C7.75911 6.64726 8.14889 6.43892 8.57322 6.35451C8.99755 6.27011 9.43739 6.31343 9.8371 6.47899C10.2368 6.64456 10.5785 6.92494 10.8188 7.28467C11.0592 7.6444 11.1875 8.06733 11.1875 8.49998C11.1875 9.08014 10.957 9.63654 10.5468 10.0468C10.1365 10.457 9.58014 10.6875 8.99998 10.6875ZM16.1875 8.5617V8.43826L17.2812 7.07029C17.373 6.95567 17.4366 6.82108 17.4669 6.67737C17.4972 6.53367 17.4932 6.38486 17.4555 6.24295C17.2581 5.4985 16.9631 4.78344 16.5781 4.11639C16.5039 3.98918 16.4009 3.88124 16.2772 3.80129C16.1536 3.72135 16.0128 3.67165 15.8664 3.65623L14.1258 3.46092L14.039 3.3742L13.8437 1.63279C13.8282 1.4865 13.7784 1.34591 13.6985 1.2224C13.6186 1.0989 13.5107 0.99594 13.3836 0.921855C12.7165 0.535674 12.0011 0.239607 11.2562 0.0413859C11.1142 0.00415039 10.9654 0.000799466 10.8218 0.0316032C10.6783 0.0624069 10.5439 0.126504 10.4297 0.21873L9.0617 1.31248H8.93826L7.57029 0.21873C7.45567 0.126918 7.32108 0.063319 7.17738 0.0330577C7.03367 0.0027964 6.88486 0.00671962 6.74295 0.044511C5.99831 0.243113 5.28324 0.539438 4.61639 0.925761C4.48968 0.99954 4.38204 1.10201 4.30213 1.22494C4.22221 1.34787 4.17224 1.48783 4.15623 1.63357L3.96092 3.3742L3.8742 3.46092L2.13279 3.65623C1.9865 3.67177 1.84591 3.72152 1.72241 3.80146C1.5989 3.8814 1.49594 3.98928 1.42186 4.11639C1.03676 4.78365 0.741746 5.49899 0.544512 6.24373C0.506849 6.38553 0.502992 6.53418 0.533251 6.67774C0.56351 6.8213 0.62704 6.95576 0.71873 7.07029L1.81248 8.43826V8.5617L0.71873 9.92967C0.626919 10.0443 0.563319 10.1789 0.533058 10.3226C0.502797 10.4663 0.50672 10.6151 0.544512 10.757C0.743361 11.5017 1.03995 12.2168 1.42654 12.8836C1.50024 13.0102 1.60259 13.1178 1.72538 13.1977C1.84816 13.2776 1.98797 13.3276 2.13357 13.3437L3.8742 13.5375L3.96092 13.6242L4.15623 15.3672C4.17177 15.5135 4.22152 15.654 4.30146 15.7776C4.3814 15.9011 4.48928 16.004 4.61639 16.0781C5.28349 16.4643 5.99883 16.7604 6.74373 16.9586C6.88577 16.9958 7.03457 16.9992 7.17814 16.9684C7.32171 16.9376 7.45603 16.8735 7.57029 16.7812L8.93826 15.6875H9.0617L10.4297 16.7812C10.5443 16.873 10.6789 16.9366 10.8226 16.9669C10.9663 16.9972 11.1151 16.9932 11.257 16.9554C12.0015 16.7581 12.7165 16.4631 13.3836 16.0781C13.5106 16.0045 13.6185 15.9021 13.6987 15.7792C13.7789 15.6562 13.8291 15.5162 13.8453 15.3703L14.039 13.6297L14.1258 13.5429L15.8672 13.3437C16.0131 13.3276 16.1531 13.2773 16.2761 13.1971C16.399 13.117 16.5014 13.009 16.575 12.882C16.9612 12.2149 17.2572 11.4996 17.4555 10.7547C17.4929 10.6131 17.4966 10.4647 17.4663 10.3215C17.4361 10.1782 17.3727 10.044 17.2812 9.92967L16.1875 8.5617ZM14.3031 8.17967C14.3156 8.39303 14.3156 8.60693 14.3031 8.82029C14.2891 9.05223 14.3618 9.28108 14.507 9.46248L15.5101 10.7164C15.4154 10.9967 15.3024 11.2704 15.1719 11.5359L13.5758 11.7133C13.3447 11.7397 13.1317 11.8511 12.9781 12.0258C12.8362 12.1857 12.6849 12.337 12.525 12.4789C12.3503 12.6324 12.2389 12.8455 12.2125 13.0765L12.0359 14.6719C11.7705 14.803 11.4967 14.9165 11.2164 15.0117L9.96248 14.0078C9.79607 13.875 9.58943 13.8028 9.37654 13.8031C9.35779 13.8031 9.33904 13.8031 9.32029 13.8031C9.10694 13.8156 8.89303 13.8156 8.67967 13.8031C8.44789 13.7894 8.2192 13.8617 8.03748 14.0062L6.78357 15.0101C6.50328 14.9154 6.22952 14.8024 5.96404 14.6719L5.7867 13.0758C5.76028 12.8447 5.6489 12.6317 5.4742 12.4781C5.31431 12.3362 5.163 12.1849 5.02107 12.025C4.86752 11.8503 4.6545 11.7389 4.42342 11.7125L2.82811 11.5359C2.69699 11.2705 2.58346 10.9967 2.48826 10.7164L3.49139 9.46248C3.63659 9.28108 3.70925 9.05223 3.69529 8.82029C3.68279 8.60693 3.68279 8.39303 3.69529 8.17967C3.70925 7.94773 3.63659 7.71888 3.49139 7.53748L2.48982 6.28357C2.58452 6.00328 2.69752 5.72952 2.82811 5.46404L4.4242 5.2867C4.65529 5.26028 4.8683 5.1489 5.02186 4.9742C5.16378 4.8143 5.31509 4.663 5.47498 4.52107C5.64968 4.36752 5.76106 4.1545 5.78748 3.92342L5.96404 2.3281C6.22948 2.19699 6.50325 2.08346 6.78357 1.98826L8.03748 2.99217C8.2192 3.13669 8.44789 3.20902 8.67967 3.19529C8.89303 3.18279 9.10694 3.18279 9.32029 3.19529C9.55213 3.20947 9.78097 3.13709 9.96248 2.99217L11.2164 1.98826C11.4967 2.08346 11.7705 2.19699 12.0359 2.3281L12.2133 3.9242C12.2397 4.15528 12.3511 4.3683 12.5258 4.52185C12.6857 4.66378 12.837 4.81509 12.9789 4.97498C13.1324 5.14968 13.3455 5.26106 13.5765 5.28748L15.1719 5.46404C15.303 5.72948 15.4165 6.00324 15.5117 6.28357L14.5086 7.53748C14.3628 7.71865 14.2896 7.94753 14.3031 8.17967Z" fill="white"/>
</svg>
